<svg id="Laag_1" data-name="Laag 1" xmlns="http://www.w3.org/2000/svg" viewBox="0 0 19.74 15.2"><defs><style>.cls-1{fill:#333e50;}</style></defs><title>IconProductPlace</title><path class="cls-1" d="M9.85,4.57a4.54,4.54,0,1,0,4.54,4.55A4.55,4.55,0,0,0,9.85,4.57M0,13V5.18L0,5A2.5,2.5,0,0,1,.54,3.76a2.47,2.47,0,0,1,1.95-1c1,0,2,0,2.95,0H5.5s0,0,0-.06,0-.31.05-.46A2.49,2.49,0,0,1,6.23,1,2.53,2.53,0,0,1,7.68.26l.22,0h3.94l.26,0a2.54,2.54,0,0,1,1.54.94,2.48,2.48,0,0,1,.53,1.29c0,.09,0,.19,0,.29h2.92a2.64,2.64,0,0,1,.72.09,2.56,2.56,0,0,1,1.88,2.45q0,3.78,0,7.56a2.43,2.43,0,0,1-.08.59,2.56,2.56,0,0,1-2.48,1.94H2.53l-.34,0A2.57,2.57,0,0,1,0,13.25L0,13" transform="translate(0.02 -0.23)"/><path class="cls-1" d="M12.41,8.88A2.57,2.57,0,1,1,9.84,6.32a2.57,2.57,0,0,1,2.57,2.56" transform="translate(0.02 -0.23)"/></svg>