<?xml version="1.0" encoding="utf-8"?>
<!-- Generator: Adobe Illustrator 20.1.0, SVG Export Plug-In . SVG Version: 6.00 Build 0)  -->
<svg version="1.1" id="Laag_1" xmlns="http://www.w3.org/2000/svg" xmlns:xlink="http://www.w3.org/1999/xlink" x="0px" y="0px"
	 viewBox="0 0 19.7 15.7" style="enable-background:new 0 0 19.7 15.7;" xml:space="preserve">
<style type="text/css">
	.st0{fill:#333E50;}
</style>
<title>IconHome</title>
<path class="st0" d="M8.3,11v4.7H3.7c-0.5,0-0.8-0.3-0.9-0.7c0-0.1,0-0.1,0-0.2V9.2C2.8,9,2.9,8.9,3,8.8l6-4.9
	c0.2-0.2,0.5-0.4,0.7-0.6c0.1-0.1,0.2-0.1,0.3,0l0,0l3.8,3.2l3,2.4c0.1,0.1,0.1,0.1,0.1,0.2v5.8c0,0.4-0.3,0.8-0.8,0.8c0,0,0,0,0,0
	h-4.7V11H8.3z"/>
<path class="st0" d="M9.8,2.1L8,3.7L1.5,9C1.2,9.3,1,9.2,0.8,8.9L0.1,8.2C0,8.1-0.1,7.8,0.1,7.6c0,0,0.1-0.1,0.1-0.1l3.3-2.7
	l5.2-4.3C9,0.2,9.3,0.1,9.7,0c0.4,0,0.8,0.1,1.1,0.3l2.8,2.3l0.1,0.1V0.6c0-0.4,0.1-0.5,0.5-0.5h2.1c0.4,0,0.5,0.1,0.5,0.5v4.7
	c0,0.1,0,0.2,0.1,0.3l2.4,2l0.2,0.2c0.2,0.1,0.2,0.4,0.1,0.5c0,0,0,0,0,0l0,0c-0.2,0.3-0.5,0.6-0.7,0.9c-0.2,0.2-0.4,0.2-0.6,0l0,0
	l-2.4-2l-4.6-3.8L9.8,2.1"/>
</svg>
