<svg id="Laag_1" data-name="Laag 1" xmlns="http://www.w3.org/2000/svg" viewBox="0 0 15.66 15.66"><defs><style>.cls-1{fill:#333e50;}</style></defs><title>IconProfil</title><path class="cls-1" d="M8.59,8.69A3.22,3.22,0,0,1,6.86,4.94a3.11,3.11,0,1,1,5.84,2.13,3,3,0,0,1-1.62,1.62,5,5,0,0,1,3.51,4.45A7,7,0,0,0,16.7,5.64a7.19,7.19,0,0,0-13.88.67A6.91,6.91,0,0,0,5.1,13.12,4.78,4.78,0,0,1,8.59,8.69m9.08-.85a7.89,7.89,0,0,1-7.85,7.82A7.89,7.89,0,0,1,2,7.8,7.89,7.89,0,0,1,9.84,0a7.89,7.89,0,0,1,7.83,7.84" transform="translate(-2.01)"/></svg>