<svg id="Laag_1" data-name="Laag 1" xmlns="http://www.w3.org/2000/svg" viewBox="0 0 13.33 15.67"><defs><style>.cls-1{fill:#333e50;}</style></defs><title>IconNotification</title><path class="cls-1" d="M10.5,1.68A5.13,5.13,0,0,1,12.75,2.9a5,5,0,0,1,1.63,3.86c0,1.27,0,2.53,0,3.8a1.07,1.07,0,0,0,.25.61,6.69,6.69,0,0,0,.9.91,1.06,1.06,0,0,1,.37,1.19H2.68A.93.93,0,0,1,3,12.16a2.91,2.91,0,0,0,1.24-3A15.69,15.69,0,0,1,4.3,6,4.84,4.84,0,0,1,7.66,1.84c.34-.13.48-.24.48-.62A1.17,1.17,0,0,1,10.43.83a5.14,5.14,0,0,1,.07.85" transform="translate(-2.63 0.01)"/><path class="cls-1" d="M7.77,14.09h3.1a1.59,1.59,0,0,1-1.63,1.57,1.54,1.54,0,0,1-1.47-1.57" transform="translate(-2.63 0.01)"/></svg>