<svg id="Laag_1" data-name="Laag 1" xmlns="http://www.w3.org/2000/svg" viewBox="0 0 12.27 15.34"><defs><style>.cls-1{fill:#333e50;}</style></defs><title>LocationIcon</title><path class="cls-1" d="M9.84,5.83A1.42,1.42,0,1,0,8.42,4.4,1.42,1.42,0,0,0,9.84,5.83m0,7.11-.16-.25c-.93-1.47-1.83-3-2.62-4.52A18.43,18.43,0,0,1,6,5.84a4.15,4.15,0,0,1-.26-1.06A4.85,4.85,0,0,1,6,3,3.72,3.72,0,0,1,7.52.88,4.2,4.2,0,0,1,10.07.22,4.14,4.14,0,0,1,12,.78a3.76,3.76,0,0,1,1.74,2.29,5.18,5.18,0,0,1,.2,1.57,3.38,3.38,0,0,1-.19.93,14.94,14.94,0,0,1-.89,2.12c-.67,1.36-1.43,2.67-2.22,4L9.9,12.86l-.05.08" transform="translate(-3.71 -0.21)"/><path class="cls-1" d="M8,10.57l-.56.08a6.38,6.38,0,0,0-1.7.5,2.2,2.2,0,0,0-.69.48A.82.82,0,0,0,5,12.74a2.14,2.14,0,0,0,.73.63,5.74,5.74,0,0,0,1.55.58,11.73,11.73,0,0,0,3.56.25,9.77,9.77,0,0,0,1.89-.31,5,5,0,0,0,1.53-.66,1.81,1.81,0,0,0,.5-.49.82.82,0,0,0-.09-1.08,2.42,2.42,0,0,0-.86-.56,6.83,6.83,0,0,0-1.62-.44l-.48-.07.22-.23H12a8.42,8.42,0,0,1,2.69.65,3,3,0,0,1,.76.48,1.57,1.57,0,0,1,.25,2.17,3.1,3.1,0,0,1-1,.86,6.75,6.75,0,0,1-1.78.69A12.79,12.79,0,0,1,9,15.52a11.13,11.13,0,0,1-2.61-.44,5.66,5.66,0,0,1-1.8-.86,2.43,2.43,0,0,1-.72-.81,1.55,1.55,0,0,1,.36-1.93,3.52,3.52,0,0,1,1.17-.67,8.7,8.7,0,0,1,1.9-.44l.39,0a.12.12,0,0,1,.09,0l.2.21" transform="translate(-3.71 -0.21)"/></svg>