<?xml version="1.0" encoding="utf-8"?>
<!-- Generator: Adobe Illustrator 20.1.0, SVG Export Plug-In . SVG Version: 6.00 Build 0)  -->
<svg version="1.1" id="Laag_1" xmlns="http://www.w3.org/2000/svg" xmlns:xlink="http://www.w3.org/1999/xlink" x="0px" y="0px"
	 viewBox="0 0 20.1 18.8" style="enable-background:new 0 0 20.1 18.8;" xml:space="preserve">
<style type="text/css">
	.st0{fill:none;stroke:#FFFFFF;stroke-width:0.25;stroke-miterlimit:10;}
</style>
<title>Ster</title>
<path class="st0" d="M4.5,17.8c1.8-1.4,3.7-2.9,5.5-4.3c1.8,1.4,3.6,2.8,5.5,4.2c0-0.1,0-0.1,0-0.1c-0.5-1.6-1-3.1-1.5-4.7
	c-0.2-0.6-0.4-1.2-0.6-1.9c0-0.1,0-0.2,0.1-0.2c0.2-0.2,0.4-0.3,0.6-0.5c0.7-0.5,1.4-1.1,2.1-1.6c0.6-0.5,1.2-0.9,1.8-1.4
	c0.3-0.2,0.5-0.4,0.8-0.7c-2.2,0-4.4,0-6.6,0L10,0.2L7.8,6.8c-2.2,0-4.4,0-6.6,0C1.3,6.9,1.4,6.9,1.5,7C2.3,7.6,3.1,8.3,4,8.9
	c0.8,0.6,1.7,1.3,2.5,1.9c0.1,0.1,0.1,0.2,0.1,0.3C6.4,11.8,6.2,12.4,6,13L4.5,17.8z"/>
</svg>
